Stevie Wonder - Music Of My Mind (1972) - 2011

MFSL Silver Label, MOFI 1-015 / Motown, Universal Music

USA LP, Vinyl Rip, 24/96, FLAC (tracks+.cue)

Thanks aksman

Side One

01 - Love Having You Around (Wonder, Syreeta Wright) (07:21)
 Stevie Wonder – lead vocal, background vocal, Fender Rhodes, talk box, drums, Moog bass
 Art Baron – trombone
 Background Singers – uncredited

02 - "Superwoman (Where Were You When I Needed You) (08:04)
 Stevie Wonder – lead vocal, background vocal, Fender Rhodes, drums, Moog bass, T.O.N.T.O. synthesizer
 Buzz Feiten – electric guitar

03 - I Love Every Little Thing About You (03:46)
 Stevie Wonder – lead vocal, background vocal, Fender Rhodes, drums, bongos, Moog bass

04 - Sweet Little Girl (04:54)
 Stevie Wonder – lead vocal, background vocal, keyboard, piano, harmonica, drums, Moog bass

Side Two

01 - Happier Than the Morning Sun (05:18)
 Stevie Wonder – lead vocal, background vocal, Hohner clavinet, Moog bass

02 - Girl Blue (Wonder, Yvonne Wright) (03:36)
 Stevie Wonder – lead vocal, Hohner clavinet, drums, talk box, harmonica, Moog bass, T.O.N.T.O. synthesizer, percussion

03 - Seems So Long (04:22)
 Stevie Wonder – lead vocal, keyboards, drums, Moog bass, T.O.N.T.O. synthesizer

04 - Keep On Running (06:40)
 Stevie Wonder – lead vocal, background vocal, piano, Hohner clavinet, handclaps, drums, Moog bass
 Background Singers – uncredited

05 - Evil (Wonder, Y. Wright) (03:33)
 Stevie Wonder – lead vocal, piano, drums, Moog bass, T.O.N.T.O. synthesizer
 Choir – uncredited

All songs written by Stevie Wonder except where indicated.


Ripping Note

 This brand record been excellent pressed. But why did MFSL always use such ridiculous low transfer levels? For that reason it could be a litlle noisy in the quite parts of the record.

Technical Log

 RCM Hannl 'limited' with "Rotating Brush"
 Music Hall MMF 9.1 Turntable
 Tonearm: Pro-Ject 9cc evo with Pure Silver Wires
 Cartridge: Nagaoka MP-500
 Brocksieper Phonomax (Tube Phono PreAmp)
 E-MU 0404 external USB 2.0 Audiointerface
 Interconnections : Silent Wire NF5
 WaveLab 6 recording software
 iZotope RX Advanced 2.00 for resampling and dithering

 Vacuum cleaning > TT > Brocksieper Phonomax > E-MU 0404 > WaveLab 6 (24/192) > manual click removal >
 analyze (no clipping, no DC Bias offset) > converted to 24/96 (16/44.1) with iZotope RX Advanced 2.00
 > split into individual Tracks > FLAC encoded (Vers. 1.21)

 No silence been removed, please burn gapless to match original tracklayout.

Dynamic Range

 foobar2000 1.1.7 / Dynamic Range Meter 1.1.0 beta 6
 log date: 2011-10-02 00:07:21

 --------------------------------------------------------------------------------
 Analyzed: Stevie Wonder / Music of My Mind [MFSL Silver Label LP]
 --------------------------------------------------------------------------------

 DR Peak RMS Duration Track
 --------------------------------------------------------------------------------
 DR12 -2.58 dB -16.95 dB 7:23 01-Love Having You Around
 DR12 -1.30 dB -16.02 dB 8:06 02-Superwoman (Where Were You When I Needed You)
 DR12 -2.94 dB -17.89 dB 3:54 03-I Love Every Little Thing About You
 DR13 -1.39 dB -17.39 dB 4:57 04-Sweet Little Girl
 DR12 -3.42 dB -18.20 dB 5:18 05-Happier Than the Morning Sun
 DR12 -3.10 dB -17.03 dB 3:34 06-Girl Blue
 DR11 -3.93 dB -18.25 dB 4:22 07-Seems So Long
 DR12 -1.03 dB -15.33 dB 6:39 08-Keep on Running
 DR11 -2.06 dB -15.27 dB 3:36 09-Evil
 --------------------------------------------------------------------------------

 Number of tracks: 9
 Official DR value: DR12

 Samplerate: 44100 Hz
 Channels: 2
 Bits per sample: 16
 Bitrate: 789 kbps
 Codec: FLAC
 ==============================================================